<mxfile host="app.diagrams.net" modified="2021-03-01T16:32:33.713Z" agent="5.0 (Windows NT 10.0; Win64; x64) AppleWebKit/537.36 (KHTML, like Gecko) Chrome/87.0.4280.141 Safari/537.36 OPR/73.0.3856.400" etag="EOrGpU9dBRaj9rB1FB20" version="14.4.2" type="github">
  <diagram id="IuL9zfne7IpNo0FOMz-C" name="Page-1">
    <mxGraphModel dx="2208" dy="764" grid="1" gridSize="10" guides="1" tooltips="1" connect="1" arrows="1" fold="1" page="1" pageScale="1" pageWidth="827" pageHeight="1169" math="0" shadow="0">
      <root>
        <mxCell id="0" />
        <mxCell id="1" parent="0" />
        <mxCell id="bppCxVNTQ66xvf25DU2--1" value="Proprietário" style="shape=umlActor;verticalLabelPosition=bottom;verticalAlign=top;html=1;outlineConnect=0;fillColor=#fff2cc;strokeColor=#d6b656;" parent="1" vertex="1">
          <mxGeometry x="-140" y="220" width="30" height="60" as="geometry" />
        </mxCell>
        <mxCell id="bppCxVNTQ66xvf25DU2--2" value="" style="whiteSpace=wrap;html=1;aspect=fixed;" parent="1" vertex="1">
          <mxGeometry x="-87.5" width="760" height="760" as="geometry" />
        </mxCell>
        <mxCell id="bppCxVNTQ66xvf25DU2--8" style="rounded=0;orthogonalLoop=1;jettySize=auto;html=1;exitX=1;exitY=0.3333333333333333;exitDx=0;exitDy=0;exitPerimeter=0;entryX=0;entryY=0.5;entryDx=0;entryDy=0;endArrow=none;endFill=0;fillColor=#f8cecc;strokeColor=#b85450;" parent="1" source="bppCxVNTQ66xvf25DU2--3" target="bppCxVNTQ66xvf25DU2--7" edge="1">
          <mxGeometry relative="1" as="geometry" />
        </mxCell>
        <mxCell id="bppCxVNTQ66xvf25DU2--3" value="Cliente" style="shape=umlActor;verticalLabelPosition=bottom;verticalAlign=top;html=1;outlineConnect=0;fillColor=#f8cecc;strokeColor=#b85450;" parent="1" vertex="1">
          <mxGeometry x="-140" y="585" width="30" height="60" as="geometry" />
        </mxCell>
        <mxCell id="bppCxVNTQ66xvf25DU2--11" style="rounded=0;orthogonalLoop=1;jettySize=auto;html=1;exitX=0;exitY=0.3333333333333333;exitDx=0;exitDy=0;exitPerimeter=0;fillColor=#d5e8d4;strokeColor=#82b366;endArrow=none;endFill=0;" parent="1" source="bppCxVNTQ66xvf25DU2--4" target="bppCxVNTQ66xvf25DU2--9" edge="1">
          <mxGeometry relative="1" as="geometry">
            <mxPoint x="740" y="560" as="sourcePoint" />
          </mxGeometry>
        </mxCell>
        <mxCell id="bppCxVNTQ66xvf25DU2--4" value="BD" style="shape=umlActor;verticalLabelPosition=bottom;verticalAlign=top;html=1;outlineConnect=0;fillColor=#d5e8d4;strokeColor=#82b366;" parent="1" vertex="1">
          <mxGeometry x="680" y="580" width="30" height="60" as="geometry" />
        </mxCell>
        <mxCell id="bppCxVNTQ66xvf25DU2--30" style="edgeStyle=none;rounded=0;orthogonalLoop=1;jettySize=auto;html=1;exitX=1;exitY=0.5;exitDx=0;exitDy=0;startArrow=none;startFill=0;endArrow=classic;endFill=1;fillColor=#fff2cc;strokeColor=#d6b656;" parent="1" source="bppCxVNTQ66xvf25DU2--5" target="bppCxVNTQ66xvf25DU2--16" edge="1">
          <mxGeometry relative="1" as="geometry" />
        </mxCell>
        <mxCell id="bppCxVNTQ66xvf25DU2--5" value="Inserir datas disponíveis" style="ellipse;whiteSpace=wrap;html=1;fillColor=#fff2cc;strokeColor=#d6b656;" parent="1" vertex="1">
          <mxGeometry x="-60" y="290" width="120" height="80" as="geometry" />
        </mxCell>
        <mxCell id="bppCxVNTQ66xvf25DU2--6" value="" style="endArrow=none;html=1;exitX=1;exitY=0.3333333333333333;exitDx=0;exitDy=0;exitPerimeter=0;entryX=0;entryY=0.5;entryDx=0;entryDy=0;" parent="1" source="bppCxVNTQ66xvf25DU2--1" target="bppCxVNTQ66xvf25DU2--5" edge="1">
          <mxGeometry width="50" height="50" relative="1" as="geometry">
            <mxPoint x="380" y="510" as="sourcePoint" />
            <mxPoint x="430" y="460" as="targetPoint" />
          </mxGeometry>
        </mxCell>
        <mxCell id="bppCxVNTQ66xvf25DU2--12" style="edgeStyle=none;rounded=0;orthogonalLoop=1;jettySize=auto;html=1;entryX=0;entryY=0.5;entryDx=0;entryDy=0;fillColor=#f8cecc;strokeColor=#b85450;" parent="1" source="bppCxVNTQ66xvf25DU2--7" target="bppCxVNTQ66xvf25DU2--9" edge="1">
          <mxGeometry relative="1" as="geometry" />
        </mxCell>
        <mxCell id="bppCxVNTQ66xvf25DU2--18" style="edgeStyle=none;rounded=0;orthogonalLoop=1;jettySize=auto;html=1;entryX=0;entryY=0.5;entryDx=0;entryDy=0;endArrow=none;endFill=0;startArrow=classic;startFill=1;dashed=1;fillColor=#f8cecc;strokeColor=#b85450;" parent="1" source="bppCxVNTQ66xvf25DU2--7" target="bppCxVNTQ66xvf25DU2--13" edge="1">
          <mxGeometry relative="1" as="geometry">
            <mxPoint x="310" y="755" as="targetPoint" />
          </mxGeometry>
        </mxCell>
        <mxCell id="bppCxVNTQ66xvf25DU2--39" style="edgeStyle=none;rounded=0;orthogonalLoop=1;jettySize=auto;html=1;exitX=0.5;exitY=0;exitDx=0;exitDy=0;entryX=0;entryY=1;entryDx=0;entryDy=0;startArrow=classic;startFill=1;endArrow=none;endFill=0;dashed=1;fillColor=#f8cecc;strokeColor=#b85450;" parent="1" source="bppCxVNTQ66xvf25DU2--7" target="bppCxVNTQ66xvf25DU2--31" edge="1">
          <mxGeometry relative="1" as="geometry" />
        </mxCell>
        <mxCell id="bppCxVNTQ66xvf25DU2--7" value="Criar cadastro" style="ellipse;whiteSpace=wrap;html=1;fillColor=#f8cecc;strokeColor=#b85450;" parent="1" vertex="1">
          <mxGeometry x="-60" y="630" width="120" height="80" as="geometry" />
        </mxCell>
        <mxCell id="bppCxVNTQ66xvf25DU2--9" value="CRUD" style="ellipse;whiteSpace=wrap;html=1;fillColor=#d5e8d4;strokeColor=#82b366;" parent="1" vertex="1">
          <mxGeometry x="360" y="560" width="120" height="80" as="geometry" />
        </mxCell>
        <mxCell id="bppCxVNTQ66xvf25DU2--10" value="Sistema de Gestão de Salão de Beleza" style="text;html=1;align=center;verticalAlign=middle;resizable=0;points=[];autosize=1;" parent="1" vertex="1">
          <mxGeometry x="182.5" y="10" width="220" height="20" as="geometry" />
        </mxCell>
        <mxCell id="bppCxVNTQ66xvf25DU2--15" style="edgeStyle=none;rounded=0;orthogonalLoop=1;jettySize=auto;html=1;entryX=0;entryY=0.5;entryDx=0;entryDy=0;endArrow=classic;endFill=1;exitX=1;exitY=0.5;exitDx=0;exitDy=0;fillColor=#f8cecc;strokeColor=#b85450;" parent="1" source="bppCxVNTQ66xvf25DU2--13" target="bppCxVNTQ66xvf25DU2--9" edge="1">
          <mxGeometry relative="1" as="geometry">
            <mxPoint x="415.1546016824127" y="728.6598156852597" as="sourcePoint" />
          </mxGeometry>
        </mxCell>
        <mxCell id="bppCxVNTQ66xvf25DU2--13" value="Alterar cadastro" style="ellipse;whiteSpace=wrap;html=1;fillColor=#f8cecc;strokeColor=#b85450;" parent="1" vertex="1">
          <mxGeometry x="90" y="660" width="120" height="80" as="geometry" />
        </mxCell>
        <mxCell id="bppCxVNTQ66xvf25DU2--23" style="edgeStyle=none;rounded=0;orthogonalLoop=1;jettySize=auto;html=1;startArrow=none;startFill=0;endArrow=classic;endFill=1;fillColor=#fff2cc;strokeColor=#d6b656;" parent="1" source="bppCxVNTQ66xvf25DU2--16" target="bppCxVNTQ66xvf25DU2--21" edge="1">
          <mxGeometry relative="1" as="geometry" />
        </mxCell>
        <mxCell id="bppCxVNTQ66xvf25DU2--16" value="Inserir horários disponíveis" style="ellipse;whiteSpace=wrap;html=1;fillColor=#fff2cc;strokeColor=#d6b656;" parent="1" vertex="1">
          <mxGeometry x="90" y="310" width="120" height="80" as="geometry" />
        </mxCell>
        <mxCell id="bppCxVNTQ66xvf25DU2--21" value="Exibir na página de agendamento" style="ellipse;whiteSpace=wrap;html=1;fillColor=#e1d5e7;strokeColor=#9673a6;" parent="1" vertex="1">
          <mxGeometry x="360" y="300" width="120" height="80" as="geometry" />
        </mxCell>
        <mxCell id="bppCxVNTQ66xvf25DU2--41" style="edgeStyle=none;rounded=0;orthogonalLoop=1;jettySize=auto;html=1;entryX=0;entryY=1;entryDx=0;entryDy=0;startArrow=none;startFill=0;endArrow=classic;endFill=1;fillColor=#f8cecc;strokeColor=#b85450;" parent="1" source="bppCxVNTQ66xvf25DU2--31" target="bppCxVNTQ66xvf25DU2--40" edge="1">
          <mxGeometry relative="1" as="geometry" />
        </mxCell>
        <mxCell id="bppCxVNTQ66xvf25DU2--31" value="Agendar horário e data" style="ellipse;whiteSpace=wrap;html=1;fillColor=#f8cecc;strokeColor=#b85450;" parent="1" vertex="1">
          <mxGeometry x="90" y="510" width="120" height="80" as="geometry" />
        </mxCell>
        <mxCell id="bppCxVNTQ66xvf25DU2--47" style="edgeStyle=none;rounded=0;orthogonalLoop=1;jettySize=auto;html=1;exitX=0;exitY=0.5;exitDx=0;exitDy=0;entryX=0.992;entryY=0.65;entryDx=0;entryDy=0;entryPerimeter=0;startArrow=none;startFill=0;endArrow=classic;endFill=1;dashed=1;fillColor=#e1d5e7;strokeColor=#9673a6;" parent="1" source="bppCxVNTQ66xvf25DU2--40" target="bppCxVNTQ66xvf25DU2--44" edge="1">
          <mxGeometry relative="1" as="geometry" />
        </mxCell>
        <mxCell id="bppCxVNTQ66xvf25DU2--60" style="edgeStyle=none;rounded=0;orthogonalLoop=1;jettySize=auto;html=1;exitX=1;exitY=0.5;exitDx=0;exitDy=0;entryX=0;entryY=0.3333333333333333;entryDx=0;entryDy=0;entryPerimeter=0;startArrow=none;startFill=0;endArrow=none;endFill=0;fillColor=#e1d5e7;strokeColor=#9673a6;" parent="1" source="bppCxVNTQ66xvf25DU2--40" target="bppCxVNTQ66xvf25DU2--55" edge="1">
          <mxGeometry relative="1" as="geometry" />
        </mxCell>
        <mxCell id="bppCxVNTQ66xvf25DU2--40" value="Notificar o agendamento" style="ellipse;whiteSpace=wrap;html=1;fillColor=#e1d5e7;strokeColor=#9673a6;" parent="1" vertex="1">
          <mxGeometry x="360" y="420" width="120" height="80" as="geometry" />
        </mxCell>
        <mxCell id="bppCxVNTQ66xvf25DU2--44" value="Visualizar notificação" style="ellipse;whiteSpace=wrap;html=1;fillColor=#fff2cc;strokeColor=#d6b656;" parent="1" vertex="1">
          <mxGeometry x="-60" y="420" width="120" height="80" as="geometry" />
        </mxCell>
        <mxCell id="bppCxVNTQ66xvf25DU2--45" style="edgeStyle=none;rounded=0;orthogonalLoop=1;jettySize=auto;html=1;exitX=1;exitY=0.3333333333333333;exitDx=0;exitDy=0;exitPerimeter=0;entryX=0;entryY=0.5;entryDx=0;entryDy=0;startArrow=none;startFill=0;endArrow=none;endFill=0;" parent="1" source="bppCxVNTQ66xvf25DU2--1" target="bppCxVNTQ66xvf25DU2--44" edge="1">
          <mxGeometry relative="1" as="geometry" />
        </mxCell>
        <mxCell id="bppCxVNTQ66xvf25DU2--52" value="" style="edgeStyle=none;rounded=0;orthogonalLoop=1;jettySize=auto;html=1;startArrow=classic;startFill=1;endArrow=none;endFill=0;fillColor=#fff2cc;strokeColor=#d6b656;dashed=1;" parent="1" source="bppCxVNTQ66xvf25DU2--49" target="bppCxVNTQ66xvf25DU2--51" edge="1">
          <mxGeometry relative="1" as="geometry" />
        </mxCell>
        <mxCell id="bppCxVNTQ66xvf25DU2--49" value="Abrir o caixa" style="ellipse;whiteSpace=wrap;html=1;fillColor=#fff2cc;strokeColor=#d6b656;" parent="1" vertex="1">
          <mxGeometry x="-60" y="130" width="120" height="80" as="geometry" />
        </mxCell>
        <mxCell id="bppCxVNTQ66xvf25DU2--50" style="edgeStyle=none;rounded=0;orthogonalLoop=1;jettySize=auto;html=1;exitX=1;exitY=0.3333333333333333;exitDx=0;exitDy=0;exitPerimeter=0;entryX=0;entryY=0.5;entryDx=0;entryDy=0;startArrow=none;startFill=0;endArrow=none;endFill=0;" parent="1" source="bppCxVNTQ66xvf25DU2--1" target="bppCxVNTQ66xvf25DU2--49" edge="1">
          <mxGeometry relative="1" as="geometry" />
        </mxCell>
        <mxCell id="bppCxVNTQ66xvf25DU2--51" value="Realizar transações" style="ellipse;whiteSpace=wrap;html=1;fillColor=#fff2cc;strokeColor=#d6b656;" parent="1" vertex="1">
          <mxGeometry x="90" y="120" width="120" height="80" as="geometry" />
        </mxCell>
        <mxCell id="bppCxVNTQ66xvf25DU2--59" style="edgeStyle=none;rounded=0;orthogonalLoop=1;jettySize=auto;html=1;exitX=0;exitY=0.3333333333333333;exitDx=0;exitDy=0;exitPerimeter=0;entryX=1;entryY=0.5;entryDx=0;entryDy=0;startArrow=none;startFill=0;endArrow=none;endFill=0;fillColor=#e1d5e7;strokeColor=#9673a6;" parent="1" source="bppCxVNTQ66xvf25DU2--55" target="bppCxVNTQ66xvf25DU2--21" edge="1">
          <mxGeometry relative="1" as="geometry" />
        </mxCell>
        <mxCell id="bppCxVNTQ66xvf25DU2--55" value="Sistema" style="shape=umlActor;verticalLabelPosition=bottom;verticalAlign=top;html=1;outlineConnect=0;fillColor=#e1d5e7;strokeColor=#9673a6;" parent="1" vertex="1">
          <mxGeometry x="680" y="280" width="30" height="60" as="geometry" />
        </mxCell>
        <mxCell id="bppCxVNTQ66xvf25DU2--62" style="edgeStyle=none;rounded=0;orthogonalLoop=1;jettySize=auto;html=1;entryX=1;entryY=0;entryDx=0;entryDy=0;startArrow=none;startFill=0;endArrow=classic;endFill=1;fillColor=#fff2cc;strokeColor=#d6b656;dashed=1;" parent="1" source="bppCxVNTQ66xvf25DU2--61" target="bppCxVNTQ66xvf25DU2--49" edge="1">
          <mxGeometry relative="1" as="geometry" />
        </mxCell>
        <mxCell id="bppCxVNTQ66xvf25DU2--61" value="Retirar relatórios" style="ellipse;whiteSpace=wrap;html=1;fillColor=#fff2cc;strokeColor=#d6b656;" parent="1" vertex="1">
          <mxGeometry x="90" y="30" width="120" height="80" as="geometry" />
        </mxCell>
        <mxCell id="t5xD-ardSCgEeJ1-nj0R-8" style="rounded=0;orthogonalLoop=1;jettySize=auto;html=1;entryX=1;entryY=1;entryDx=0;entryDy=0;dashed=1;startArrow=none;startFill=0;endArrow=classic;endFill=1;fillColor=#fff2cc;strokeColor=#d6b656;" edge="1" parent="1" source="t5xD-ardSCgEeJ1-nj0R-1" target="bppCxVNTQ66xvf25DU2--49">
          <mxGeometry relative="1" as="geometry" />
        </mxCell>
        <mxCell id="t5xD-ardSCgEeJ1-nj0R-1" value="Fechar caixa" style="ellipse;whiteSpace=wrap;html=1;fillColor=#fff2cc;strokeColor=#d6b656;" vertex="1" parent="1">
          <mxGeometry x="90" y="210" width="120" height="80" as="geometry" />
        </mxCell>
        <mxCell id="t5xD-ardSCgEeJ1-nj0R-3" value="" style="endArrow=classic;html=1;" edge="1" parent="1">
          <mxGeometry width="50" height="50" relative="1" as="geometry">
            <mxPoint x="-180" y="40" as="sourcePoint" />
            <mxPoint x="-110" y="40" as="targetPoint" />
          </mxGeometry>
        </mxCell>
        <mxCell id="t5xD-ardSCgEeJ1-nj0R-5" value="Include" style="text;html=1;align=center;verticalAlign=middle;resizable=0;points=[];autosize=1;" vertex="1" parent="1">
          <mxGeometry x="-175" y="50" width="50" height="20" as="geometry" />
        </mxCell>
        <mxCell id="t5xD-ardSCgEeJ1-nj0R-6" value="" style="endArrow=classic;html=1;dashed=1;" edge="1" parent="1">
          <mxGeometry width="50" height="50" relative="1" as="geometry">
            <mxPoint x="-180" y="90" as="sourcePoint" />
            <mxPoint x="-110" y="90" as="targetPoint" />
          </mxGeometry>
        </mxCell>
        <mxCell id="t5xD-ardSCgEeJ1-nj0R-7" value="Extend" style="text;html=1;align=center;verticalAlign=middle;resizable=0;points=[];autosize=1;" vertex="1" parent="1">
          <mxGeometry x="-175" y="100" width="50" height="20" as="geometry" />
        </mxCell>
      </root>
    </mxGraphModel>
  </diagram>
</mxfile>
